<?xml version="1.0" encoding="utf-8"?>
<!-- Generator: Adobe Illustrator 24.0.1, SVG Export Plug-In . SVG Version: 6.00 Build 0)  -->
<svg version="1.1" id="图层_1" xmlns="http://www.w3.org/2000/svg" xmlns:xlink="http://www.w3.org/1999/xlink" x="0px" y="0px"
	 viewBox="0 0 200 200" style="enable-background:new 0 0 200 200;" xml:space="preserve">
<style type="text/css">
	.st0{fill:#6666FF;}
	.st1{fill:#FFFFFF;}
</style>
<path class="st0" d="M158.4,200H41.6C18.6,200,0,181.4,0,158.4V41.6C0,18.6,18.6,0,41.6,0h116.7c23,0,41.6,18.6,41.6,41.6v116.7
	C200,181.4,181.4,200,158.4,200z"/>
<path class="st1" d="M153.1,110.3c-1.5-0.4-2.5-2-2.1-3.5c6.8-32.3-12.2-64.8-43.3-73.4c-32.1-8.9-65.2,10.8-74,44v0.2
	c-5.3,20.4-1.7,42.2,10.1,59.7c8.1,12.3,19.9,21.7,33.6,27c38.1,14.4,79.1-7.1,91.1-45.6c0.6-1.9-0.4-4-2.4-4.7c0,0-0.1,0-0.1,0
	L153.1,110.3L153.1,110.3z M89.8,141.6c-11.7-3.2-21.4-11-27.5-21.7c-6-10.8-7.6-23.5-4.6-35.4C63,64.7,82.7,53,101.9,58.3
	c18.1,5,29.4,23.6,26.1,42.3c-0.3,1.7,0.7,3.4,2.4,3.9l12.2,3.4c1.5,0.4,2.4,2,2,3.5c0,0.1,0,0.2-0.1,0.2
	C136.8,134.6,113,147.9,89.8,141.6L89.8,141.6z"/>
</svg>
