<!-- Generated by IcoMoon.io -->
<svg version="1.1" xmlns="http://www.w3.org/2000/svg" width="1024" height="1024" viewBox="0 0 1024 1024">
<title></title>
<g id="icomoon-ignore">
</g>
<path fill="#fefefe" d="M1039.95 512.855c0 170.693-0.036 341.371 0.175 512.066 0 5.919-1.159 7.094-7.078 7.078-341.944-0.19-683.904-0.19-1025.843 0-5.919 0-7.094-1.159-7.078-7.078 0.19-341.944 0.19-683.904 0-1025.843 0-5.919 1.159-7.094 7.078-7.078 341.944 0.19 683.904 0.19 1025.843 0 5.919 0 7.094 1.159 7.078 7.078-0.208 171.25-0.175 342.511-0.175 513.777z"></path>
<path fill="#dc1314" d="M502.622 772.047c124.542-0.139 235.066-99.105 250.556-229.805 6.783-57.294-7.061-107.461-49.092-148.197-28.361-27.481-62.746-42.051-102.046-45.389-5.642-0.482-7.491 0.051-5.675 6.66 11.094 40.197 21.578 80.552 32.414 120.823 13.88 51.603 1.938 97.616-33.711 136.033-40.753 43.902-92.271 58.248-149.72 41.22-58.179-17.236-94.26-57.866-103.343-117.74-9.119-59.979 8.116-115.218 41.791-165.189 24.679-36.616 57.469-64.235 97.009-83.72 4.811-2.369 5.278-3.809 2.977-8.599-39.455-82.199 11.456-175.731 101.819-186.905 17.547-2.182 35.111-0.693 52.086 4.725 22.566 7.216 34.921 29.987 28.812 52.727-6.073 22.67-28.24 36.117-51.412 31.2-28.725-6.109-50.236 5.468-56.637 30.49-6.713 26.215 12.477 51.222 39.419 51.344 111.253 0.482 215.754 85.363 237.663 195.419 18.793 94.465-3.339 181.322-59.651 258.064-73.043 99.571-173.464 147.196-296.762 143.076-157.352-5.245-294.319-124.421-323.183-278.865-31.062-166.213 56.153-326.055 212.331-389.15 20.106-8.116 40.129-3.98 52.78 10.884 12.027 14.136 13.88 34.867 4.24 50.788-5.382 8.894-13.239 14.777-22.929 18.76-85.797 35.301-139.715 98.168-160.209 188.607-25.266 111.514 31.598 230.932 133.299 283.020 37.88 19.398 77.977 29.14 127.169 29.728z"></path>
<path fill="#fefefe" d="M547.2 513.86c-0.276 32.203-28.24 59.492-60.377 59.233-32.88-0.259-60.22-27.773-59.82-60.203 0.726-59.89 26.892-105.803 76.175-139.202 5.901-3.996 7.527-2.977 9.24 3.583 10.903 42.014 22.098 83.945 33.416 125.857 1.002 3.736 1.002 7.391 1.367 10.73z"></path>
</svg>
