<!-- Generated by IcoMoon.io -->
<svg version="1.1" xmlns="http://www.w3.org/2000/svg" width="901" height="1024" viewBox="0 0 901 1024">
<title></title>
<g id="icomoon-ignore">
</g>
<path fill="#fefefe" d="M1745.113 1022.736c-560.88 0-1121.845-0.758-1682.725 1.263-50.27 0.168-62.9-10.61-62.395-61.216 2.863-303.722 2.526-607.529 0.168-911.251-0.337-42.691 7.915-51.617 51.701-51.533 1135.401 1.6 2270.719 1.516 3406.036 0.084 43.112-0.084 52.543 7.663 52.206 51.112-2.442 307.091-4.294 614.265 1.179 921.272 1.095 62.226-29.134 50.27-63.068 50.27-567.701 0-1135.401 0-1703.102 0z"></path>
<path fill="#f10560" d="M491.237 783.092c-194.005 170.596-360.644 112.243-448.216-157.040 112.917-31.492 227.518-40.839 344.056-25.177 55.49 24.251 105.423 54.227 122.095 117.801 2.526 23.745 0.084 46.144-17.935 64.416z"></path>
<path fill="#0486dc" d="M364.089 300.606c58.522-115.443 133.21-142.978 251.685-92.54 104.244 44.46 166.555 123.863 195.773 230.549-106.686 19.114-213.204 44.796-322.668 28.377-103.655-15.578-144.662-72.499-124.79-166.386z"></path>
<path fill="#a8046e" d="M143.392 581.762c-131.779-94.897-118.559-265.157 27.366-340.014 49.68-25.514 97.003-58.353 156.198-60.458 12.546 74.015 18.693 148.872 26.861 223.308 9.178 83.951-12.546 157.461-103.318 191.732-37.134 5.557-74.604 12.883-107.107-14.567z"></path>
<path fill="#fdc10a" d="M690.547 482.486c159.482 106.686 145.756 257.663-34.439 354.918-37.639 20.293-81.425 29.387-122.348 43.702-26.608-100.455-35.534-202.425-26.272-305.996 55.238-106.77 86.224-122.432 183.059-92.624z"></path>
<path fill="#fcfafb" d="M690.547 482.486c-69.552-5.136-121.59 23.83-159.482 80.162-40.502 46.396 22.567 117.38-38.565 158.892-13.304-45.554-65.595-56.585-86.646-95.318-35.281-29.555-77.13-7.578-115.275-14.483-20.209-3.621-51.869 8.841-46.817-31.576 69.889-37.134 94.897-95.487 89.761-172.196-5.052-75.362-4.631-151.061-6.568-226.676 41.26 30.987-1.516 87.488 37.218 119.232 26.272 120.916 52.375 142.978 176.070 142.809 90.519-0.168 180.954-3.116 271.472-4.8-27.956 48.417-91.698 0.084-121.169 43.954z"></path>
<path fill="#f8f2f7" d="M243.762 580.162c43.281 52.29 120.159-10.862 162.092 46.059-120.916-12.715-241.833-10.694-362.749-0.168 19.367-45.891 77.804-5.473 100.371-44.375 33.429-0.505 66.858-1.010 100.286-1.516z"></path>
<path fill="#fefeec" d="M492.5 721.54c41.091-46.312-13.809-115.275 38.565-158.892 0.926 106.181 1.768 212.277 2.695 318.458-47.154-18.693-7.831-74.015-42.439-98.013 0.337-20.546 0.758-41.091 1.179-61.553z"></path>
</svg>
